<?xml version="1.0" encoding="UTF-8" standalone="no"?><svg xmlns="http://www.w3.org/2000/svg" xmlns:xlink="http://www.w3.org/1999/xlink" clip-rule="evenodd" stroke-miterlimit="10" viewBox="0 0 1024 768"><desc>SVG generated by Keynote</desc><defs></defs><g transform="matrix(1.00, 0.00, -0.00, -1.00, 0.0, 768.0)"><g><clipPath id="clip0x608000aa17a0"><path d="M 0.0 768.0 L 1024.0 768.0 L 1024.0 0.0 L 0.0 0.0 Z M 0.0 768.0 "></path></clipPath><g clip-path="url(#clip0x608000aa17a0)"><image xlink:href="../../D3A9A44C-A1F3-457B-A38D-765D2DDF54DB/assets/EBB0417F320B7CF9EEE7A69128C7B5B4.jpeg" width="2048.00" height="1536.00" transform="matrix(0.50, 0.00, -0.00, -0.50, 0.0, 768.0)"></image></g></g><text xml:space="preserve" font-family="MarkerFelt-Thin,Marker Felt" font-size="80.0" fill="#45A6DE" transform="matrix(1.00, 0.00, -0.00, -1.00, 115.6, 626.4)">M</text><text xml:space="preserve" font-family="MarkerFelt-Thin,Marker Felt" font-size="80.0" fill="#45A6DE" transform="matrix(1.00, 0.00, -0.00, -1.00, 193.7, 626.4)">a</text><text xml:space="preserve" font-family="MarkerFelt-Thin,Marker Felt" font-size="80.0" fill="#45A6DE" transform="matrix(1.00, 0.00, -0.00, -1.00, 233.8, 626.4)">k</text><text xml:space="preserve" font-family="MarkerFelt-Thin,Marker Felt" font-size="80.0" fill="#45A6DE" transform="matrix(1.00, 0.00, -0.00, -1.00, 275.6, 626.4)">e</text><text xml:space="preserve" font-family="MarkerFelt-Thin,Marker Felt" font-size="80.0" fill="#45A6DE" transform="matrix(1.00, 0.00, -0.00, -1.00, 312.1, 626.4)">s</text><text xml:space="preserve" font-family="MarkerFelt-Thin,Marker Felt" font-size="80.0" fill="#45A6DE" transform="matrix(1.00, 0.00, -0.00, -1.00, 341.7, 626.4)"> </text><text xml:space="preserve" font-family="MarkerFelt-Thin,Marker Felt" font-size="80.0" fill="#45A6DE" transform="matrix(1.00, 0.00, -0.00, -1.00, 361.7, 626.4)">I</text><text xml:space="preserve" font-family="MarkerFelt-Thin,Marker Felt" font-size="80.0" fill="#45A6DE" transform="matrix(1.00, 0.00, -0.00, -1.00, 380.9, 626.4)">m</text><text xml:space="preserve" font-family="MarkerFelt-Thin,Marker Felt" font-size="80.0" fill="#45A6DE" transform="matrix(1.00, 0.00, -0.00, -1.00, 441.2, 626.4)">p</text><text xml:space="preserve" font-family="MarkerFelt-Thin,Marker Felt" font-size="80.0" fill="#45A6DE" transform="matrix(1.00, 0.00, -0.00, -1.00, 479.5, 626.4)">o</text><text xml:space="preserve" font-family="MarkerFelt-Thin,Marker Felt" font-size="80.0" fill="#45A6DE" transform="matrix(1.00, 0.00, -0.00, -1.00, 515.8, 626.4)">s</text><text xml:space="preserve" font-family="MarkerFelt-Thin,Marker Felt" font-size="80.0" fill="#45A6DE" transform="matrix(1.00, 0.00, -0.00, -1.00, 549.6, 626.4)">s</text><text xml:space="preserve" font-family="MarkerFelt-Thin,Marker Felt" font-size="80.0" fill="#45A6DE" transform="matrix(1.00, 0.00, -0.00, -1.00, 582.5, 626.4)">i</text><text xml:space="preserve" font-family="MarkerFelt-Thin,Marker Felt" font-size="80.0" fill="#45A6DE" transform="matrix(1.00, 0.00, -0.00, -1.00, 601.8, 626.4)">b</text><text xml:space="preserve" font-family="MarkerFelt-Thin,Marker Felt" font-size="80.0" fill="#45A6DE" transform="matrix(1.00, 0.00, -0.00, -1.00, 638.4, 626.4)">l</text><text xml:space="preserve" font-family="MarkerFelt-Thin,Marker Felt" font-size="80.0" fill="#45A6DE" transform="matrix(1.00, 0.00, -0.00, -1.00, 656.5, 626.4)">e</text><text xml:space="preserve" font-family="MarkerFelt-Thin,Marker Felt" font-size="80.0" fill="#45A6DE" transform="matrix(1.00, 0.00, -0.00, -1.00, 686.9, 626.4)"> </text><text xml:space="preserve" font-family="MarkerFelt-Thin,Marker Felt" font-size="80.0" fill="#45A6DE" transform="matrix(1.00, 0.00, -0.00, -1.00, 706.9, 626.4)">D</text><text xml:space="preserve" font-family="MarkerFelt-Thin,Marker Felt" font-size="80.0" fill="#45A6DE" transform="matrix(1.00, 0.00, -0.00, -1.00, 746.1, 626.4)">o</text><text xml:space="preserve" font-family="MarkerFelt-Thin,Marker Felt" font-size="80.0" fill="#45A6DE" transform="matrix(1.00, 0.00, -0.00, -1.00, 783.1, 626.4)">a</text><text xml:space="preserve" font-family="MarkerFelt-Thin,Marker Felt" font-size="80.0" fill="#45A6DE" transform="matrix(1.00, 0.00, -0.00, -1.00, 823.2, 626.4)">b</text><text xml:space="preserve" font-family="MarkerFelt-Thin,Marker Felt" font-size="80.0" fill="#45A6DE" transform="matrix(1.00, 0.00, -0.00, -1.00, 859.9, 626.4)">l</text><text xml:space="preserve" font-family="MarkerFelt-Thin,Marker Felt" font-size="80.0" fill="#45A6DE" transform="matrix(1.00, 0.00, -0.00, -1.00, 878.0, 626.4)">e</text><g><clipPath id="clip0x6080008bb0c0"><path d="M 104.0 313.2 L 129.2 313.2 L 129.2 336.7 L 104.0 336.7 Z M 104.0 313.2 "></path></clipPath><g clip-path="url(#clip0x6080008bb0c0)"><path d="M 128.8 321.7 C 129.1 321.3 129.2 320.9 129.2 320.5 C 129.2 319.8 128.8 319.1 127.9 318.5 C 127.1 317.8 126.1 317.5 125.1 317.5 C 123.7 317.5 122.1 318.5 120.3 320.5 C 120.3 320.5 120.3 317.5 120.3 317.5 C 120.3 317.2 120.4 316.9 120.5 316.4 C 120.7 316.0 120.8 315.7 120.8 315.5 C 120.8 314.9 120.5 314.3 119.8 313.9 C 119.2 313.5 118.6 313.2 117.9 313.2 C 116.8 313.2 115.8 313.7 115.0 314.7 C 114.7 315.0 114.6 315.8 114.7 317.2 C 114.8 318.5 114.9 319.9 115.0 321.3 C 114.3 320.8 112.9 320.0 111.0 319.0 C 110.7 318.6 109.9 318.2 108.6 317.7 C 107.6 317.6 106.6 317.8 105.6 318.3 C 104.5 318.8 104.0 319.4 104.0 320.2 C 104.0 320.4 104.0 320.6 104.1 320.8 C 104.3 321.2 104.8 321.5 105.4 321.7 C 106.4 322.1 107.0 322.3 107.1 322.3 C 107.1 322.3 112.7 325.3 112.7 325.3 C 112.7 325.3 108.7 327.3 108.7 327.3 C 108.1 327.3 107.4 327.5 106.4 328.1 C 106.2 328.4 106.1 328.7 106.1 329.0 C 106.1 330.0 106.7 330.9 107.8 331.8 C 108.9 332.7 110.0 333.1 111.2 333.1 C 111.5 333.1 111.9 333.0 112.3 332.9 C 112.6 332.8 113.0 332.5 113.3 331.9 C 113.6 331.2 114.2 330.6 115.0 330.1 C 115.0 330.1 115.1 333.7 115.1 333.7 C 115.0 334.2 115.0 334.9 115.1 335.8 C 115.5 336.4 116.6 336.7 118.1 336.7 C 119.6 336.7 120.5 336.3 121.0 335.5 C 121.2 335.1 121.2 334.3 121.1 333.0 C 121.0 331.9 120.9 330.8 120.7 329.6 C 120.7 329.6 122.8 330.7 122.8 330.7 C 123.2 331.1 124.0 331.6 125.1 332.1 C 125.9 332.1 126.7 331.8 127.4 331.1 C 128.2 330.5 128.6 329.8 128.6 329.0 C 128.6 328.6 128.5 328.3 128.3 328.0 C 128.1 327.7 127.7 327.5 127.2 327.4 C 126.6 327.3 126.2 327.1 126.0 327.0 C 126.0 327.0 123.0 324.8 123.0 324.8 C 123.0 324.8 126.9 322.7 126.9 322.7 C 127.4 322.5 128.0 322.2 128.8 321.7 Z M 128.8 321.7 " fill="#3995D6"></path></g></g><text xml:space="preserve" font-family="MarkerFelt-Thin,Marker Felt" font-size="46.0" fill="#858585" transform="matrix(1.00, 0.00, -0.00, -1.00, 154.0, 310.0)">S</text><text xml:space="preserve" font-family="MarkerFelt-Thin,Marker Felt" font-size="46.0" fill="#858585" transform="matrix(1.00, 0.00, -0.00, -1.00, 177.7, 310.0)">p</text><text xml:space="preserve" font-family="MarkerFelt-Thin,Marker Felt" font-size="46.0" fill="#858585" transform="matrix(1.00, 0.00, -0.00, -1.00, 199.2, 310.0)">e</text><text xml:space="preserve" font-family="MarkerFelt-Thin,Marker Felt" font-size="46.0" fill="#858585" transform="matrix(1.00, 0.00, -0.00, -1.00, 219.1, 310.0)">e</text><text xml:space="preserve" font-family="MarkerFelt-Thin,Marker Felt" font-size="46.0" fill="#858585" transform="matrix(1.00, 0.00, -0.00, -1.00, 239.5, 310.0)">d</text><text xml:space="preserve" font-family="MarkerFelt-Thin,Marker Felt" font-size="46.0" fill="#858585" transform="matrix(1.00, 0.00, -0.00, -1.00, 260.4, 310.0)">i</text><text xml:space="preserve" font-family="MarkerFelt-Thin,Marker Felt" font-size="46.0" fill="#858585" transform="matrix(1.00, 0.00, -0.00, -1.00, 271.8, 310.0)">n</text><text xml:space="preserve" font-family="MarkerFelt-Thin,Marker Felt" font-size="46.0" fill="#858585" transform="matrix(1.00, 0.00, -0.00, -1.00, 295.7, 310.0)">g</text><text xml:space="preserve" font-family="MarkerFelt-Thin,Marker Felt" font-size="46.0" fill="#858585" transform="matrix(1.00, 0.00, -0.00, -1.00, 315.0, 310.0)"> </text><text xml:space="preserve" font-family="MarkerFelt-Thin,Marker Felt" font-size="46.0" fill="#858585" transform="matrix(1.00, 0.00, -0.00, -1.00, 326.5, 310.0)">c</text><text xml:space="preserve" font-family="MarkerFelt-Thin,Marker Felt" font-size="46.0" fill="#858585" transform="matrix(1.00, 0.00, -0.00, -1.00, 346.2, 310.0)">o</text><text xml:space="preserve" font-family="MarkerFelt-Thin,Marker Felt" font-size="46.0" fill="#858585" transform="matrix(1.00, 0.00, -0.00, -1.00, 366.6, 310.0)">p</text><text xml:space="preserve" font-family="MarkerFelt-Thin,Marker Felt" font-size="46.0" fill="#858585" transform="matrix(1.00, 0.00, -0.00, -1.00, 388.0, 310.0)">s</text><g><clipPath id="clip0x6080008bda60"><path d="M 153.0 302.5 L 405.0 302.5 L 405.0 305.4 L 153.0 305.4 Z M 153.0 302.5 "></path></clipPath><g clip-path="url(#clip0x6080008bda60)"><path d="M 54.0 246.1 L 305.0 246.1 " fill="none" stroke="#858585" stroke-width="0.92" transform="matrix(1.00, 0.00, 0.00, -1.00, 100.0, 550.0)"></path></g></g><image xlink:href="D8FCDB00932F7E075235E97577BF3158.png" width="621.00" height="349.00" transform="matrix(0.84, 0.00, -0.00, -0.84, 426.0, 471.0)"></image></g></svg>