<?xml version="1.0" encoding="UTF-8" standalone="no"?><svg xmlns="http://www.w3.org/2000/svg" xmlns:xlink="http://www.w3.org/1999/xlink" clip-rule="evenodd" stroke-miterlimit="10" viewBox="0 0 1024 768"><desc>SVG generated by Keynote</desc><defs></defs><g transform="matrix(1.00, 0.00, -0.00, -1.00, 0.0, 768.0)"><g><clipPath id="clip0x600000caa140"><path d="M 0.0 768.0 L 1024.0 768.0 L 1024.0 0.0 L 0.0 0.0 Z M 0.0 768.0 "></path></clipPath><g clip-path="url(#clip0x600000caa140)"><image xlink:href="../../D3A9A44C-A1F3-457B-A38D-765D2DDF54DB/assets/EBB0417F320B7CF9EEE7A69128C7B5B4.jpeg" width="2048.00" height="1536.00" transform="matrix(0.50, 0.00, -0.00, -0.50, 0.0, 768.0)"></image></g></g><text xml:space="preserve" font-family="MarkerFelt-Thin,Marker Felt" font-size="80.0" fill="#45A6DE" transform="matrix(1.00, 0.00, -0.00, -1.00, 161.8, 504.4)">D</text><text xml:space="preserve" font-family="MarkerFelt-Thin,Marker Felt" font-size="80.0" fill="#45A6DE" transform="matrix(1.00, 0.00, -0.00, -1.00, 201.0, 504.4)">a</text><text xml:space="preserve" font-family="MarkerFelt-Thin,Marker Felt" font-size="80.0" fill="#45A6DE" transform="matrix(1.00, 0.00, -0.00, -1.00, 240.1, 504.4)">t</text><text xml:space="preserve" font-family="MarkerFelt-Thin,Marker Felt" font-size="80.0" fill="#45A6DE" transform="matrix(1.00, 0.00, -0.00, -1.00, 273.0, 504.4)">a</text><text xml:space="preserve" font-family="MarkerFelt-Thin,Marker Felt" font-size="80.0" fill="#45A6DE" transform="matrix(1.00, 0.00, -0.00, -1.00, 309.8, 504.4)"> </text><text xml:space="preserve" font-family="MarkerFelt-Thin,Marker Felt" font-size="80.0" fill="#45A6DE" transform="matrix(1.00, 0.00, -0.00, -1.00, 329.8, 504.4)">&gt;</text><text xml:space="preserve" font-family="MarkerFelt-Thin,Marker Felt" font-size="80.0" fill="#45A6DE" transform="matrix(1.00, 0.00, -0.00, -1.00, 360.2, 504.4)"> </text><text xml:space="preserve" font-family="MarkerFelt-Thin,Marker Felt" font-size="80.0" fill="#45A6DE" transform="matrix(1.00, 0.00, -0.00, -1.00, 111.8, 418.4)">A</text><text xml:space="preserve" font-family="MarkerFelt-Thin,Marker Felt" font-size="80.0" fill="#45A6DE" transform="matrix(1.00, 0.00, -0.00, -1.00, 163.5, 418.4)">n</text><text xml:space="preserve" font-family="MarkerFelt-Thin,Marker Felt" font-size="80.0" fill="#45A6DE" transform="matrix(1.00, 0.00, -0.00, -1.00, 204.8, 418.4)">e</text><text xml:space="preserve" font-family="MarkerFelt-Thin,Marker Felt" font-size="80.0" fill="#45A6DE" transform="matrix(1.00, 0.00, -0.00, -1.00, 240.2, 418.4)">c</text><text xml:space="preserve" font-family="MarkerFelt-Thin,Marker Felt" font-size="80.0" fill="#45A6DE" transform="matrix(1.00, 0.00, -0.00, -1.00, 274.2, 418.4)">d</text><text xml:space="preserve" font-family="MarkerFelt-Thin,Marker Felt" font-size="80.0" fill="#45A6DE" transform="matrix(1.00, 0.00, -0.00, -1.00, 310.9, 418.4)">o</text><text xml:space="preserve" font-family="MarkerFelt-Thin,Marker Felt" font-size="80.0" fill="#45A6DE" transform="matrix(1.00, 0.00, -0.00, -1.00, 349.3, 418.4)">t</text><text xml:space="preserve" font-family="MarkerFelt-Thin,Marker Felt" font-size="80.0" fill="#45A6DE" transform="matrix(1.00, 0.00, -0.00, -1.00, 379.8, 418.4)">e</text><text xml:space="preserve" font-family="MarkerFelt-Thin,Marker Felt" font-size="40.0" fill="#858584" transform="matrix(1.00, 0.00, -0.00, -1.00, 88.2, 351.7)">L</text><text xml:space="preserve" font-family="MarkerFelt-Thin,Marker Felt" font-size="40.0" fill="#858584" transform="matrix(1.00, 0.00, -0.00, -1.00, 105.0, 351.7)">I</text><text xml:space="preserve" font-family="MarkerFelt-Thin,Marker Felt" font-size="40.0" fill="#858584" transform="matrix(1.00, 0.00, -0.00, -1.00, 115.9, 351.7)">R</text><text xml:space="preserve" font-family="MarkerFelt-Thin,Marker Felt" font-size="40.0" fill="#858584" transform="matrix(1.00, 0.00, -0.00, -1.00, 140.4, 351.7)">R</text><text xml:space="preserve" font-family="MarkerFelt-Thin,Marker Felt" font-size="40.0" fill="#858584" transform="matrix(1.00, 0.00, -0.00, -1.00, 163.2, 351.7)"> </text><text xml:space="preserve" font-family="MarkerFelt-Thin,Marker Felt" font-size="40.0" fill="#858584" transform="matrix(1.00, 0.00, -0.00, -1.00, 173.2, 351.7)">d</text><text xml:space="preserve" font-family="MarkerFelt-Thin,Marker Felt" font-size="40.0" fill="#858584" transform="matrix(1.00, 0.00, -0.00, -1.00, 191.4, 351.7)">i</text><text xml:space="preserve" font-family="MarkerFelt-Thin,Marker Felt" font-size="40.0" fill="#858584" transform="matrix(1.00, 0.00, -0.00, -1.00, 200.8, 351.7)">s</text><text xml:space="preserve" font-family="MarkerFelt-Thin,Marker Felt" font-size="40.0" fill="#858584" transform="matrix(1.00, 0.00, -0.00, -1.00, 218.0, 351.7)">a</text><text xml:space="preserve" font-family="MarkerFelt-Thin,Marker Felt" font-size="40.0" fill="#858584" transform="matrix(1.00, 0.00, -0.00, -1.00, 238.0, 351.7)">b</text><text xml:space="preserve" font-family="MarkerFelt-Thin,Marker Felt" font-size="40.0" fill="#858584" transform="matrix(1.00, 0.00, -0.00, -1.00, 256.4, 351.7)">i</text><text xml:space="preserve" font-family="MarkerFelt-Thin,Marker Felt" font-size="40.0" fill="#858584" transform="matrix(1.00, 0.00, -0.00, -1.00, 266.3, 351.7)">l</text><text xml:space="preserve" font-family="MarkerFelt-Thin,Marker Felt" font-size="40.0" fill="#858584" transform="matrix(1.00, 0.00, -0.00, -1.00, 275.6, 351.7)">i</text><text xml:space="preserve" font-family="MarkerFelt-Thin,Marker Felt" font-size="40.0" fill="#858584" transform="matrix(1.00, 0.00, -0.00, -1.00, 286.3, 351.7)">t</text><text xml:space="preserve" font-family="MarkerFelt-Thin,Marker Felt" font-size="40.0" fill="#858584" transform="matrix(1.00, 0.00, -0.00, -1.00, 304.4, 351.7)">y</text><text xml:space="preserve" font-family="MarkerFelt-Thin,Marker Felt" font-size="40.0" fill="#858584" transform="matrix(1.00, 0.00, -0.00, -1.00, 323.2, 351.7)"> </text><text xml:space="preserve" font-family="MarkerFelt-Thin,Marker Felt" font-size="40.0" fill="#858584" transform="matrix(1.00, 0.00, -0.00, -1.00, 333.2, 351.7)">c</text><text xml:space="preserve" font-family="MarkerFelt-Thin,Marker Felt" font-size="40.0" fill="#858584" transform="matrix(1.00, 0.00, -0.00, -1.00, 350.0, 351.7)">l</text><text xml:space="preserve" font-family="MarkerFelt-Thin,Marker Felt" font-size="40.0" fill="#858584" transform="matrix(1.00, 0.00, -0.00, -1.00, 359.8, 351.7)">a</text><text xml:space="preserve" font-family="MarkerFelt-Thin,Marker Felt" font-size="40.0" fill="#858584" transform="matrix(1.00, 0.00, -0.00, -1.00, 379.8, 351.7)">i</text><text xml:space="preserve" font-family="MarkerFelt-Thin,Marker Felt" font-size="40.0" fill="#858584" transform="matrix(1.00, 0.00, -0.00, -1.00, 389.2, 351.7)">m</text><text xml:space="preserve" font-family="MarkerFelt-Thin,Marker Felt" font-size="40.0" fill="#858584" transform="matrix(1.00, 0.00, -0.00, -1.00, 419.0, 351.7)">s</text><g><clipPath id="clip0x600000cab400"><path d="M 87.2 345.0 L 433.8 345.0 L 433.8 347.8 L 87.2 347.8 Z M 87.2 345.0 "></path></clipPath><g clip-path="url(#clip0x600000cab400)"><path d="M 58.2 44.6 L 403.8 44.6 " fill="none" stroke="#858584" stroke-width="0.80" transform="matrix(1.00, 0.00, 0.00, -1.00, 30.0, 391.0)"></path></g></g><image xlink:href="AC5C67BE18CA3BB70A4B11CB05B14D3F.png" width="282.00" height="723.00" transform="matrix(1.00, 0.00, -0.00, -1.00, 604.0, 745.0)"></image></g></svg>