<?xml version="1.0" encoding="UTF-8" standalone="no"?><svg xmlns="http://www.w3.org/2000/svg" xmlns:xlink="http://www.w3.org/1999/xlink" clip-rule="evenodd" stroke-miterlimit="10" viewBox="0 0 1024 768"><desc>SVG generated by Keynote</desc><defs></defs><g transform="matrix(1.00, 0.00, -0.00, -1.00, 0.0, 768.0)"><g><clipPath id="clip0x608000ebdbe0"><path d="M 0.0 768.0 L 1024.0 768.0 L 1024.0 0.0 L 0.0 0.0 Z M 0.0 768.0 "></path></clipPath><g clip-path="url(#clip0x608000ebdbe0)"><image xlink:href="../../D3A9A44C-A1F3-457B-A38D-765D2DDF54DB/assets/EBB0417F320B7CF9EEE7A69128C7B5B4.jpeg" width="2048.00" height="1536.00" transform="matrix(0.50, 0.00, -0.00, -0.50, 0.0, 768.0)"></image></g></g><text xml:space="preserve" font-family="MarkerFelt-Thin,Marker Felt" font-size="95.0" fill="#45A6DE" transform="matrix(1.00, 0.00, -0.00, -1.00, 334.2, 421.7)">L</text><text xml:space="preserve" font-family="MarkerFelt-Thin,Marker Felt" font-size="95.0" fill="#45A6DE" transform="matrix(1.00, 0.00, -0.00, -1.00, 377.2, 421.7)">e</text><text xml:space="preserve" font-family="MarkerFelt-Thin,Marker Felt" font-size="95.0" fill="#45A6DE" transform="matrix(1.00, 0.00, -0.00, -1.00, 421.2, 421.7)">t</text><text xml:space="preserve" font-family="MarkerFelt-Thin,Marker Felt" font-size="95.0" fill="#45A6DE" transform="matrix(1.00, 0.00, -0.00, -1.00, 460.6, 421.7)">’</text><text xml:space="preserve" font-family="MarkerFelt-Thin,Marker Felt" font-size="95.0" fill="#45A6DE" transform="matrix(1.00, 0.00, -0.00, -1.00, 475.0, 421.7)">s</text><text xml:space="preserve" font-family="MarkerFelt-Thin,Marker Felt" font-size="95.0" fill="#45A6DE" transform="matrix(1.00, 0.00, -0.00, -1.00, 510.1, 421.7)"> </text><text xml:space="preserve" font-family="MarkerFelt-Thin,Marker Felt" font-size="95.0" fill="#45A6DE" transform="matrix(1.00, 0.00, -0.00, -1.00, 533.9, 421.7)">t</text><text xml:space="preserve" font-family="MarkerFelt-Thin,Marker Felt" font-size="95.0" fill="#45A6DE" transform="matrix(1.00, 0.00, -0.00, -1.00, 573.0, 421.7)">a</text><text xml:space="preserve" font-family="MarkerFelt-Thin,Marker Felt" font-size="95.0" fill="#45A6DE" transform="matrix(1.00, 0.00, -0.00, -1.00, 621.2, 421.7)">l</text><text xml:space="preserve" font-family="MarkerFelt-Thin,Marker Felt" font-size="95.0" fill="#45A6DE" transform="matrix(1.00, 0.00, -0.00, -1.00, 644.2, 421.7)">k</text><text xml:space="preserve" font-family="MarkerFelt-Thin,Marker Felt" font-size="40.0" fill="#858584" transform="matrix(1.00, 0.00, -0.00, -1.00, 405.7, 333.7)">@</text><text xml:space="preserve" font-family="MarkerFelt-Thin,Marker Felt" font-size="40.0" fill="#858584" transform="matrix(1.00, 0.00, -0.00, -1.00, 443.4, 333.7)">d</text><text xml:space="preserve" font-family="MarkerFelt-Thin,Marker Felt" font-size="40.0" fill="#858584" transform="matrix(1.00, 0.00, -0.00, -1.00, 460.6, 333.7)">e</text><text xml:space="preserve" font-family="MarkerFelt-Thin,Marker Felt" font-size="40.0" fill="#858584" transform="matrix(1.00, 0.00, -0.00, -1.00, 478.2, 333.7)">r</text><text xml:space="preserve" font-family="MarkerFelt-Thin,Marker Felt" font-size="40.0" fill="#858584" transform="matrix(1.00, 0.00, -0.00, -1.00, 493.4, 333.7)">e</text><text xml:space="preserve" font-family="MarkerFelt-Thin,Marker Felt" font-size="40.0" fill="#858584" transform="matrix(1.00, 0.00, -0.00, -1.00, 511.0, 333.7)">k</text><text xml:space="preserve" font-family="MarkerFelt-Thin,Marker Felt" font-size="40.0" fill="#858584" transform="matrix(1.00, 0.00, -0.00, -1.00, 534.0, 333.7)">w</text><text xml:space="preserve" font-family="MarkerFelt-Thin,Marker Felt" font-size="40.0" fill="#858584" transform="matrix(1.00, 0.00, -0.00, -1.00, 564.8, 333.7)">i</text><text xml:space="preserve" font-family="MarkerFelt-Thin,Marker Felt" font-size="40.0" fill="#858584" transform="matrix(1.00, 0.00, -0.00, -1.00, 574.8, 333.7)">l</text><text xml:space="preserve" font-family="MarkerFelt-Thin,Marker Felt" font-size="40.0" fill="#858584" transform="matrix(1.00, 0.00, -0.00, -1.00, 584.8, 333.7)">l</text><text xml:space="preserve" font-family="MarkerFelt-Thin,Marker Felt" font-size="40.0" fill="#858584" transform="matrix(1.00, 0.00, -0.00, -1.00, 594.1, 333.7)">i</text><text xml:space="preserve" font-family="MarkerFelt-Thin,Marker Felt" font-size="40.0" fill="#858584" transform="matrix(1.00, 0.00, -0.00, -1.00, 603.5, 333.7)">s</text></g></svg>